<svg xmlns="http://www.w3.org/2000/svg" viewBox="0 0 600 400" width="600" height="400">
  <defs>
    <filter id="shadow" x="-2" y="-2" width="8" height="8">
      <feDropShadow dx="0" dy="1" stdDeviation="1" flood-color="rgba(0,0,0,0.6)"/>
    </filter>
    <pattern id="dots" width="8" height="8" patternUnits="userSpaceOnUse">
      <circle cx="2" cy="2" r="1" fill="rgba(0,0,0,0.15)"/>
    </pattern>
    <pattern id="hatch" width="8" height="8" patternUnits="userSpaceOnUse">
      <line x1="0" y1="8" x2="8" y2="0" stroke="rgba(0,0,0,0.12)" stroke-width="1"/>
    </pattern>
    <pattern id="crosshatch" width="8" height="8" patternUnits="userSpaceOnUse">
      <line x1="0" y1="0" x2="8" y2="8" stroke="rgba(255,255,255,0.2)" stroke-width="1"/>
      <line x1="0" y1="8" x2="8" y2="0" stroke="rgba(0,0,0,0.1)" stroke-width="1"/>
    </pattern>
    <pattern id="waves" width="12" height="6" patternUnits="userSpaceOnUse">
      <path d="M0,3 Q3,0 6,3 Q9,6 12,3" fill="none" stroke="rgba(255,255,255,0.15)" stroke-width="1"/>
    </pattern>
    <radialGradient id="ocean" cx="50%" cy="50%" r="50%">
      <stop offset="0%" stop-color="#3a7d34" stop-opacity="0.3"/>
      <stop offset="70%" stop-color="#3a7d34" stop-opacity="0.6"/>
      <stop offset="100%" stop-color="#1a3a5c" stop-opacity="1"/>
    </radialGradient>
  </defs>
  <rect width="600" height="400" fill="#1a3a5c"/>
  <rect width="600" height="400" fill="url(#ocean)"/>
  <path d="M 300.0,30.0 A 255.0,170.0 0 1,0 300.0,370.0 A 255.0,170.0 0 1,0 300.0,30.0" fill="none" stroke="rgba(255,255,255,0.06)" stroke-width="1"/>
  <path d="M 300.0,60.0 A 210.0,140.0 0 1,0 300.0,340.0 A 210.0,140.0 0 1,0 300.0,60.0" fill="none" stroke="rgba(255,255,255,0.06)" stroke-width="1"/>
  <path d="M 300.0,89.99999999999999 A 165.0,110.00000000000001 0 1,0 300.0,310.0 A 165.0,110.00000000000001 0 1,0 300.0,89.99999999999999" fill="none" stroke="rgba(255,255,255,0.06)" stroke-width="1"/>
  <path d="M 300.0,120.0 A 120.0,80.0 0 1,0 300.0,280.0 A 120.0,80.0 0 1,0 300.0,120.0" fill="none" stroke="rgba(255,255,255,0.06)" stroke-width="1"/>
  <ellipse cx="300.0" cy="200.0" rx="220.0" ry="200.0" fill="#3a5a3a" opacity="0.3"/>
  <line x1="0" y1="0" x2="0" y2="400" stroke="rgba(255,255,255,0.04)" stroke-width="1"/>
  <line x1="100" y1="0" x2="100" y2="400" stroke="rgba(255,255,255,0.04)" stroke-width="1"/>
  <line x1="200" y1="0" x2="200" y2="400" stroke="rgba(255,255,255,0.04)" stroke-width="1"/>
  <line x1="300" y1="0" x2="300" y2="400" stroke="rgba(255,255,255,0.04)" stroke-width="1"/>
  <line x1="400" y1="0" x2="400" y2="400" stroke="rgba(255,255,255,0.04)" stroke-width="1"/>
  <line x1="500" y1="0" x2="500" y2="400" stroke="rgba(255,255,255,0.04)" stroke-width="1"/>
  <line x1="0" y1="0" x2="600" y2="0" stroke="rgba(255,255,255,0.04)" stroke-width="1"/>
  <line x1="0" y1="100" x2="600" y2="100" stroke="rgba(255,255,255,0.04)" stroke-width="1"/>
  <line x1="0" y1="200" x2="600" y2="200" stroke="rgba(255,255,255,0.04)" stroke-width="1"/>
  <line x1="0" y1="300" x2="600" y2="300" stroke="rgba(255,255,255,0.04)" stroke-width="1"/>
  <path d="527.2,236.2 514.4,297.0 445.1,292.3 417.6,235.4 433.9,203.2 478.7,197.3 528.6,186.8" fill="url(#crosshatch)" fill-opacity="0.4" stroke="#3a7d34" stroke-width="2" />
  <path d="527.2,236.2 514.4,297.0 445.1,292.3 417.6,235.4 433.9,203.2 478.7,197.3 528.6,186.8" fill="#3a7d34" fill-opacity="0.3" stroke="rgba(0,0,0,0.3)" stroke-width="1.5" />
  <path d="277.2,228.2 255.2,255.6 214.1,277.4 181.5,214.1 235.2,174.8 306.1,174.8" fill="url(#waves)" fill-opacity="0.4" stroke="#7a9a6b" stroke-width="2" />
  <path d="277.2,228.2 255.2,255.6 214.1,277.4 181.5,214.1 235.2,174.8 306.1,174.8" fill="#7a9a6b" fill-opacity="0.3" stroke="rgba(0,0,0,0.3)" stroke-width="1.5" />
  <path d="283.0,181.7 304.6,241.1 241.4,212.9 229.6,183.1 192.9,135.2 250.6,107.3 284.5,149.0" fill="#8b4513" fill-opacity="0.6" stroke="rgba(0,0,0,0.3)" stroke-width="1.5" />
  <path d="424.8,386.7 372.4,436.6 290.3,430.3 279.3,352.9 330.1,289.1 376.6,337.3" fill="#8b4513" fill-opacity="0.6" stroke="rgba(0,0,0,0.3)" stroke-width="1.5" />
  <text x="475.2" y="219.8" text-anchor="middle" font-family="monospace" font-size="10" fill="white" font-weight="bold" filter="url(#shadow)">Eryoth</text>
  <text x="475.2" y="233.8" text-anchor="middle" font-family="monospace" font-size="8" fill="rgba(255,255,255,0.6)" font-style="italic">Forest</text>
  <text x="246.6" y="220.1" text-anchor="middle" font-family="monospace" font-size="10" fill="white" font-weight="bold" filter="url(#shadow)">Brynax</text>
  <text x="246.6" y="234.1" text-anchor="middle" font-family="monospace" font-size="8" fill="rgba(255,255,255,0.6)" font-style="italic">Marsh</text>
  <text x="255.7" y="166.6" text-anchor="middle" font-family="monospace" font-size="10" fill="white" font-weight="bold" filter="url(#shadow)">Loros</text>
  <text x="255.7" y="180.6" text-anchor="middle" font-family="monospace" font-size="8" fill="rgba(255,255,255,0.6)" font-style="italic">Volcanic</text>
  <text x="349.2" y="364.0" text-anchor="middle" font-family="monospace" font-size="10" fill="white" font-weight="bold" filter="url(#shadow)">Ranara</text>
  <text x="349.2" y="378.0" text-anchor="middle" font-family="monospace" font-size="8" fill="rgba(255,255,255,0.6)" font-style="italic">Volcanic</text>
  <text x="300.0" y="20" text-anchor="middle" font-family="monospace" font-size="12" fill="rgba(255,255,255,0.4)">Durnnaren Copse — Topographic Survey</text>
  <text x="300.0" y="392" text-anchor="middle" font-family="monospace" font-size="8" fill="rgba(255,255,255,0.25)">seed: ember</text>
</svg>